<svg xmlns="http://www.w3.org/2000/svg" viewBox="0 0 500 500"><g id="freepik--Floor--inject-1--inject-229"><path id="freepik--floor--inject-1--inject-229" d="M90.51 403c89.78 46.9 235.35 46.9 325.14 0s89.78-123 0-169.86-235.36-46.9-325.14 0S.72 356.07 90.51 403Z" style="fill:#f5f5f5"/></g><g id="freepik--Shadows--inject-1--inject-229"><path id="freepik--Shadow--inject-1--inject-229" d="m166.85 370.69 82.53 47.65a6.25 6.25 0 0 0 5.65 0l158-91c1.56-.9 1.56-2.36 0-3.26l-82.7-47.75a6.25 6.25 0 0 0-5.65 0l-157.8 91.11c-1.6.89-1.6 2.35-.03 3.25Z" style="fill:#e0e0e0"/><path id="freepik--shadow--inject-1--inject-229" d="m65 276.32 43.19 24.82a6.25 6.25 0 0 0 5.65 0l51.82-29.92c1.56-.9 1.56-2.36 0-3.26l-42.94-24.8a6.27 6.27 0 0 0-5.66 0L65 273.06c-1.62.94-1.62 2.36 0 3.26Z" style="fill:#e0e0e0"/></g><g id="freepik--Plants--inject-1--inject-229"><g id="freepik--plants--inject-1--inject-229"><path d="M409.53 293.66c-.24-.1-1-16.28 6-25.81s15.4-10.63 20.94-8.31 4.4 8-2.42 11.42-15.31 9.38-17.33 20.26Z" style="fill:#fc7c30"/><path d="M409.53 293.66c-.24-.1-1-16.28 6-25.81s15.4-10.63 20.94-8.31 4.4 8-2.42 11.42-15.31 9.38-17.33 20.26Z" style="opacity:.1"/><path d="M412.09 288.91a.52.52 0 0 0 .51-.43c2.61-16.43 12.32-24.48 20.54-26.53a.52.52 0 1 0-.25-1c-8.54 2.13-18.62 10.45-21.32 27.37a.53.53 0 0 0 .44.6Z" style="fill:#fff"/><path d="M410.78 323.69c1.06-4.26 5.35-7.08 10.42-7.54 5.26-.47 11.39-1 13-5.44s0-10.47.73-13.42c.91-3.58 2.28-5.71 9.19-7.88 6.2-2 9.63-7.87 3.38-10.37s-12.5-.92-16.75 1-4.45 3.91-10.43 3.4-10.45 3.25-10.82 6.87Z" style="fill:#fc7c30"/><path d="M410.78 309.23a.53.53 0 0 0 .49-.34c4.92-13.71 25-26.11 31.72-26.9a.53.53 0 0 0 .46-.58.51.51 0 0 0-.58-.45c-6.87.81-27.53 13.52-32.58 27.58a.53.53 0 0 0 .32.66.47.47 0 0 0 .17.03Z" style="fill:#fff"/><path d="M415.49 301h.12a.52.52 0 0 0 .39-.62c-1.66-7.14 0-11.74 0-11.79a.51.51 0 0 0-.31-.66.52.52 0 0 0-.67.31c-.07.19-1.74 4.91 0 12.37a.53.53 0 0 0 .47.39ZM412.09 306.26a.5.5 0 0 0 .24-.06c4-2.2 12.8-.63 12.89-.62a.52.52 0 1 0 .19-1c-.38-.07-9.21-1.64-13.57.72a.52.52 0 0 0-.21.71.52.52 0 0 0 .46.25Z" style="fill:#fff"/></g></g><g id="freepik--Cabinet--inject-1--inject-229"><g id="freepik--cabinet--inject-1--inject-229"><path d="m160.18 268.98-8.17-4.72 8.17-2.36v7.08zM111.15 290.21v7.52L66.2 271.78v-7.52l44.95 25.95z"/><path style="fill:#263238" d="m62.12 205.28 44.94 25.95v61.33l-44.94-25.94v-61.34z"/><path style="fill:#37474f" d="m107.06 231.23 61.29-35.38v61.33l-61.29 35.38v-61.33z"/><path style="fill:#455a64" d="m168.35 195.85-44.94-25.95-61.29 35.38 44.94 25.95 61.29-35.38zM111.15 233.59l53.11-30.66v14.15l-53.11 30.67v-14.16z"/><g style="mix-blend-mode:multiply"><path d="M131.58 223c0 .65 1.95.05 4.35-1.34l7.63-4.41c2.41-1.38 4.36-3 4.36-3.69v-1.18l-16.34 9.44Z" style="fill:#263238"/></g><path style="fill:#455a64" d="m111.15 252.46 53.11-30.66v14.15l-53.11 30.67v-14.16z"/><g style="mix-blend-mode:multiply"><path d="M131.58 241.85c0 .65 1.95.05 4.35-1.34l7.63-4.4c2.41-1.39 4.36-3.05 4.36-3.7v-1.18l-16.34 9.44Z" style="fill:#263238"/></g><path style="fill:#455a64" d="m111.15 271.33 53.11-30.66v14.15l-53.11 30.67v-14.16z"/><g style="mix-blend-mode:multiply"><path d="M131.58 260.72c0 .65 1.95 0 4.35-1.34l7.63-4.4c2.41-1.39 4.36-3 4.36-3.7v-1.18l-16.34 9.44Z" style="fill:#263238"/></g><path style="fill:#263238" d="m111.15 297.73 4.08-2.36v-7.52l-4.08 2.36v7.52zM160.18 268.98l4.08-2.36v-7.08l-4.08 2.36v7.08z"/><path d="M105.14 226.13 129.57 212c.48-.27.48-.72 0-1l-33.51-19.08a1.94 1.94 0 0 0-1.74 0l-24.21 14c-.49.27-.49.72 0 1l33.28 19.22a1.93 1.93 0 0 0 1.75-.01Z" style="fill:#e0e0e0"/><path d="m70.08 205.87 27.5-17.48a1.84 1.84 0 0 1 1.72 0l9.9 5.72a1.08 1.08 0 0 1 .42 1.4l-.41.79a1.08 1.08 0 0 0 .41 1.4l19.95 11.61a.57.57 0 0 1 0 1l-24.49 15.77a1.81 1.81 0 0 1-1.72 0l-33.25-19.17a.56.56 0 0 1-.03-1.04Z" style="fill:#f5f5f5"/><path d="M127.39 135a.56.56 0 0 0-.56-.06l-.62.36.38 39.51a1.79 1.79 0 0 0 .8 1.39l30.93 17.86v-41.18Z" style="fill:#fc7c30"/><path d="M127.39 135a.56.56 0 0 0-.56-.06l-.62.36.38 39.51a1.79 1.79 0 0 0 .8 1.39l30.93 17.86v-41.18Z" style="opacity:.2"/><path d="M126.79 135.37c-.44-.25-.8 0-.8.47v39.35a1.79 1.79 0 0 0 .8 1.39l30.93 17.85v-41.21Z" style="fill:#fc7c30"/><path d="M126.79 135.37c-.44-.25-.8 0-.8.47v39.35a1.79 1.79 0 0 0 .8 1.39l30.93 17.85v-41.21Z" style="opacity:.5"/><path d="m150.12 190.6-22.89-13.22a1.79 1.79 0 0 1-.8-1.39v-36.3l-3-1.71 3.06-1.76h.06c.13-.2.38-.25.68-.08l26.21 15.15v41.21l-3.34 1.92Z" style="fill:#ebebeb"/><path d="M123.89 138.1c-.44-.25-.8 0-.8.46v39.36a1.76 1.76 0 0 0 .8 1.38l26.23 15.15v-41.21Z" style="fill:#fafafa"/><path style="fill:#e6e6e6" d="m150.11 153.24 3.33-1.92.02 41.21-3.34 1.92-.01-41.21z"/><path d="M149 154.36a1.07 1.07 0 0 0-.06-.3 1 1 0 0 0-.25-.41.4.4 0 0 0-.12-.1c-.23-.14-.43 0-.42.32a.9.9 0 0 0 .1.42.85.85 0 0 0 .32.39s0 0 .06 0c.23.12.37-.02.37-.32Z" style="fill:#263238"/><path d="M153.65 156.36a2.15 2.15 0 0 0 .95-1 1.46 1.46 0 0 0-.1-1.27 2.22 2.22 0 0 0-.84-.79l-.21-.12v.53a1.21 1.21 0 0 1 0 2.28 4.42 4.42 0 0 1-4 0 1.3 1.3 0 0 1-.81-1.25 1 1 0 0 1 .31-.65 1 1 0 0 0-.25-.41 1.75 1.75 0 0 0-.44.64 1.41 1.41 0 0 0 .11 1.26 2.22 2.22 0 0 0 .85.81 4.85 4.85 0 0 0 4.43-.03Z" style="fill:#263238"/><path d="M149.92 157.18 121.5 138l.44-.25a.93.93 0 0 1 .8 0l27.79 19Z" style="fill:#fc7c30"/><path d="M149.92 157.18 121.5 138l.44-.25a.93.93 0 0 1 .8 0l27.79 19Z" style="opacity:.2"/><path d="M122.06 138.1c-.44-.25-.8 0-.8.47v39.35a1.74 1.74 0 0 0 .81 1.38l28.32 19.37v-41.21Z" style="fill:#fc7c30"/><path style="fill:#fc7c30" d="m158.31 152.88.01 41.21-7.94 4.58v-41.22l7.93-4.57z"/><path style="opacity:.1" d="m158.31 152.88.01 41.21-7.94 4.58v-41.22l7.93-4.57z"/><path d="M156.73 161.92a1.42 1.42 0 0 0-1-.73 2.12 2.12 0 0 0-1.36.31 4.85 4.85 0 0 0-2.21 3.84 2.22 2.22 0 0 0 .27 1.13 1.63 1.63 0 0 0 2.4.41 4.82 4.82 0 0 0 2.22-3.83 2.45 2.45 0 0 0-.27-1.13Z" style="fill:#455a64"/><path d="M154.56 161.9c1.09-.63 2-.12 2 1.15a4.36 4.36 0 0 1-2 3.43c-1.09.64-2 .12-2-1.14a4.41 4.41 0 0 1 2-3.44ZM154.17 170.44l.6-.35c1.2-.69 2.18-.13 2.18 1.26v17.86a4.81 4.81 0 0 1-2.18 3.77l-.6.35c-1.2.69-2.18.13-2.18-1.26v-17.86a4.81 4.81 0 0 1 2.18-3.77Z" style="fill:#f5f5f5"/><path style="fill:#fc7c30" d="m157.84 152.6-7.9 4.56.44.29 7.93-4.57-.47-.28z"/><path style="opacity:.2" d="m157.84 152.6-7.9 4.56.44.29 7.93-4.57-.47-.28z"/><path d="M148.51 199.37a.76.76 0 0 0 .3-.58v-40.4a.78.78 0 0 0-.35-.61L119 138.55l-.6.35v41.2l29.44 19.24a.71.71 0 0 0 .67.03Z" style="fill:#fc7c30"/><path d="m148.09 158.39.6-.35a.83.83 0 0 1 .11.35v40.4a.76.76 0 0 1-.3.58.74.74 0 0 1-.66 0c.19.11.35 0 .35-.2v-40.4a.66.66 0 0 0-.1-.38Z" style="opacity:.1"/><path d="m118.42 138.9 29.42 19.23a.63.63 0 0 1 .25.26.66.66 0 0 1 .11.35v40.4c0 .22-.16.31-.35.2l-29.43-19.24Z" style="opacity:.5"/><path d="m118.42 138.9.6-.35 29.43 19.23a.75.75 0 0 1 .24.26l-.6.35a.63.63 0 0 0-.25-.26Z" style="opacity:.2"/><path style="fill:#fc7c30" d="m118.9 139.17.01 41.21-7.94 4.59.08-41.26 7.85-4.54z"/><path style="opacity:.7" d="m118.9 139.17.01 41.21-7.94 4.59.08-41.26 7.85-4.54z"/><path d="M144 201.46a1 1 0 0 0 .87 0l1.61-.93a1 1 0 0 0 .43-.75v-40.21a1 1 0 0 0-.44-.75L120.73 143l-2.48 1.43v41.21Z" style="fill:#ebebeb"/><path d="M118.26 185.62 144 201.46c.24.14.43 0 .43-.25V161a1 1 0 0 0-.44-.76l-25.75-15.84Z" style="fill:#fafafa"/><path d="M120.15 147.23a1.07 1.07 0 0 0-.06-.3 1 1 0 0 0-.24-.41l-.13-.1c-.23-.14-.42 0-.42.32a1 1 0 0 0 .1.42.86.86 0 0 0 .33.39c.27.11.42-.02.42-.32Z" style="fill:#263238"/><path d="m144.3 160.58 2.49-1.44a.93.93 0 0 1 .13.44v40.2a1 1 0 0 1-.44.75l-1.61.93a.93.93 0 0 1-.75 0c.18.05.31-.06.31-.3V161a.78.78 0 0 0-.13-.42Z" style="fill:#e6e6e6"/><path d="M114.38 145.19a1.75 1.75 0 0 0 1 1.5 6.17 6.17 0 0 0 4.38.31l-.22-.56a5.59 5.59 0 0 1-3.87-.26 1.44 1.44 0 0 1-.57-.53.79.79 0 0 1-.12-.46c0-.55.53-1.16 1.4-1.63a6.22 6.22 0 0 1 5.36-.29 1.46 1.46 0 0 1 .64.66l.64.38v-.05a1.53 1.53 0 0 0-.2-.75 2.08 2.08 0 0 0-.8-.75 6.74 6.74 0 0 0-5.93.28 2.77 2.77 0 0 0-1.71 2.15Z" style="fill:#263238"/><path d="M143.46 202.28a.72.72 0 0 0 .31-.58v-40.4a.78.78 0 0 0-.35-.61l-32.28-17.58-.6.35v41.2l32.29 17.59a.69.69 0 0 0 .63.03Z" style="fill:#fc7c30"/><path d="m143.05 161.3.6-.34a.74.74 0 0 1 .1.34v40.4a.61.61 0 0 1-1 .55c.19.11.35 0 .35-.2v-40.4a.78.78 0 0 0-.05-.35Z" style="opacity:.1"/><path d="M110.52 143.46 142.8 161a.75.75 0 0 1 .35.61v40.4c0 .22-.16.31-.35.2l-32.29-17.59Z" style="fill:#fc7c30"/><path d="m110.52 143.46.6-.35 32.28 17.58a.72.72 0 0 1 .25.27l-.6.34a.78.78 0 0 0-.25-.26Z" style="opacity:.2"/><path style="fill:#fc7c30" d="m118.42 138.9-7.89 4.56.52.25 7.85-4.54-.48-.27z"/><path style="opacity:.2" d="m118.42 138.9-7.89 4.56.52.25 7.85-4.54-.48-.27z"/><path d="M111 144.51a.55.55 0 0 0-.56 0l-.62.35.38 39.52a1.76 1.76 0 0 0 .8 1.38l30.93 17.86v-41.26Z" style="fill:#fc7c30"/><path d="M111 144.51a.55.55 0 0 0-.56 0l-.62.35.38 39.52a1.76 1.76 0 0 0 .8 1.38l30.93 17.86v-41.26Z" style="opacity:.2"/><path d="M110.36 144.86c-.44-.26-.8-.05-.8.46v39.35a1.77 1.77 0 0 0 .8 1.39l30.93 17.86v-41.21Z" style="fill:#fc7c30"/><path d="M110.36 144.86c-.44-.26-.8-.05-.8.46v39.35a1.77 1.77 0 0 0 .8 1.39l30.93 17.86v-41.21Z" style="opacity:.5"/><path d="m133.69 200.09-22.89-13.23a1.76 1.76 0 0 1-.8-1.39v-36.29l-3-1.71 3.06-1.77a.49.49 0 0 1 .69-.07L137 160.8V202l-3.34 1.93Z" style="fill:#ebebeb"/><path d="M107.46 147.59c-.44-.26-.8-.05-.8.46v39.35a1.79 1.79 0 0 0 .8 1.39l26.23 15.15v-41.21Z" style="fill:#fafafa"/><path style="fill:#e6e6e6" d="m133.68 162.73 3.33-1.93.02 41.21-3.34 1.93-.01-41.21z"/><path d="M132.59 163.85a1.21 1.21 0 0 0-.06-.31 1 1 0 0 0-.25-.4.29.29 0 0 0-.12-.1c-.23-.14-.43 0-.42.32a.92.92 0 0 0 .1.42.9.9 0 0 0 .32.39h.06c.21.11.37-.02.37-.32Z" style="fill:#263238"/><path d="M137.22 165.84a2.1 2.1 0 0 0 .95-1 1.44 1.44 0 0 0-.1-1.26 2.15 2.15 0 0 0-.84-.79 1.43 1.43 0 0 0-.21-.12v.52a1.21 1.21 0 0 1 0 2.28 4.38 4.38 0 0 1-4 0 1.3 1.3 0 0 1-.81-1.25 1.06 1.06 0 0 1 .31-.65 1 1 0 0 0-.25-.4 1.68 1.68 0 0 0-.44.64A1.41 1.41 0 0 0 132 165a2.2 2.2 0 0 0 .85.8 4.79 4.79 0 0 0 4.37.04Z" style="fill:#263238"/><path d="m133.49 166.67-28.42-19.14.44-.25a.87.87 0 0 1 .8 0l27.79 19Z" style="fill:#fc7c30"/><path d="m133.49 166.67-28.42-19.14.44-.25a.87.87 0 0 1 .8 0l27.79 19Z" style="opacity:.2"/><path d="M105.63 147.59c-.44-.26-.8-.05-.8.46v39.35a1.77 1.77 0 0 0 .8 1.39L134 208.15v-41.21Z" style="fill:#fc7c30"/><path style="fill:#fc7c30" d="m141.88 162.36.01 41.21-7.94 4.59v-41.22l7.93-4.58z"/><path style="opacity:.1" d="m141.88 162.36.01 41.21-7.94 4.59v-41.22l7.93-4.58z"/><path d="M140.3 171.4a1.41 1.41 0 0 0-1-.72 2.06 2.06 0 0 0-1.36.31 4.83 4.83 0 0 0-2.21 3.83A2.24 2.24 0 0 0 136 176a1.64 1.64 0 0 0 2.4.41 4.84 4.84 0 0 0 2.22-3.84 2.33 2.33 0 0 0-.28-1.13Z" style="fill:#455a64"/><path d="M138.13 171.39c1.09-.63 2-.12 2 1.15a4.36 4.36 0 0 1-2 3.43c-1.09.63-2 .12-2-1.14a4.39 4.39 0 0 1 2-3.44ZM137.74 179.92l.6-.34c1.2-.7 2.18-.13 2.18 1.25v17.86a4.84 4.84 0 0 1-2.18 3.78l-.6.34c-1.2.7-2.18.13-2.18-1.25V183.7a4.84 4.84 0 0 1 2.18-3.78Z" style="fill:#f5f5f5"/><path style="fill:#fc7c30" d="m141.41 162.08-7.9 4.56.44.3 7.93-4.58-.47-.28z"/><path style="opacity:.2" d="m141.41 162.08-7.9 4.56.44.3 7.93-4.58-.47-.28z"/></g></g><g id="freepik--speech-bubble--inject-1--inject-229"><path d="m364.12 151.44-3.95-7.44 3.18-9.17v-5.61l-9.72 5.61v5.62l4.18 7.23a.58.58 0 0 0 .28.26Z" style="fill:#fc7c30"/><path d="m364.12 151.44-3.95-7.44 3.18-9.17v-5.61l-9.72 5.61v5.62l4.18 7.23a.58.58 0 0 0 .28.26Z" style="opacity:.2"/><path d="M387.33 84.63a6.45 6.45 0 0 0-2.92-5L382 78.22a6.44 6.44 0 0 0-5.83 0l-36.38 21a6.45 6.45 0 0 0-2.92 5v40a6.45 6.45 0 0 0 2.92 5l2.37 1.37a6.44 6.44 0 0 0 5.83 0l11.7-6.76 4.17 7.22a.62.62 0 0 0 1.13-.1l4.4-12.73 15-8.67a6.45 6.45 0 0 0 2.92-5Z" style="fill:#fc7c30"/><path d="M336.91 144.34a6.45 6.45 0 0 0 2.92 5l2.37 1.37a6.54 6.54 0 0 0 5.33.24c-1.37.52-2.42-.26-2.42-1.92V109a6 6 0 0 1 .86-2.87l-8.2-4.73a5.92 5.92 0 0 0-.86 2.87Z" style="opacity:.2"/><path d="M387.23 83.81c-.34-1.24-1.47-1.63-2.81-.86L348 104a5.71 5.71 0 0 0-2.06 2.18l-8.19-4.74a5.89 5.89 0 0 1 2.05-2.17l36.38-21a6.44 6.44 0 0 1 5.83 0l2.38 1.37a6.43 6.43 0 0 1 2.84 4.17Z" style="fill:#fff;opacity:.3"/><path d="M370.2 112.57a.37.37 0 0 0-.15 0l-2.05-.17a.34.34 0 0 1-.36-.34c0-.33.05-.66.05-1v-1a.93.93 0 0 1 .23-.61l2.33-2.83a.64.64 0 0 0 .14-.58l-1.11-2.46a.14.14 0 0 0-.06-.07c-.09 0-.23 0-.36.11l-2.49 2.28a.44.44 0 0 1-.55.09 3.78 3.78 0 0 0-1.06-.62.4.4 0 0 1-.25-.44l.77-3.49a.21.21 0 0 0-.11-.24.34.34 0 0 0-.23 0l-2.44.24a.65.65 0 0 0-.53.37l-1.33 3.55a1.1 1.1 0 0 1-.53.51 11.32 11.32 0 0 0-1.51.88c-.2.13-.43.14-.52 0l-1.25-1.91c-.09-.13-.29-.1-.45.06l-2.68 2.83a.74.74 0 0 0-.21.59l.75 2.52a.88.88 0 0 1-.13.61 22 22 0 0 0-1.24 2.14 1 1 0 0 1-.58.43l-2.29.56a.77.77 0 0 0-.52.43l-1.15 3.88a.27.27 0 0 0 .28.35l2.1.12a.34.34 0 0 1 .35.34 11.27 11.27 0 0 0 0 2 1 1 0 0 1-.22.62l-2.34 2.83a.64.64 0 0 0-.14.58l1.11 2.45a.14.14 0 0 0 .07.08h.08a.48.48 0 0 0 .27-.13l2.49-2.28a.44.44 0 0 1 .55-.09 4 4 0 0 0 1.06.62.39.39 0 0 1 .25.44l-.77 3.49a.22.22 0 0 0 .1.24.34.34 0 0 0 .23 0l2.44-.24a.67.67 0 0 0 .53-.37l1.33-3.55a1.14 1.14 0 0 1 .53-.51 8.14 8.14 0 0 0 .77-.41c.25-.14.49-.3.74-.47s.43-.14.52 0l1.25 1.91h.06c.1.07.26 0 .39-.11L365 124a.7.7 0 0 0 .2-.59l-.74-2.52a.84.84 0 0 1 .14-.61 19.06 19.06 0 0 0 1.23-2.14 1 1 0 0 1 .58-.43l2.29-.56a.72.72 0 0 0 .52-.43l1.15-3.88a.24.24 0 0 0-.17-.27Zm-12.2 9.48h-1a2.44 2.44 0 0 1-2.29-1.54 4.1 4.1 0 0 1-.34-1.28 5.53 5.53 0 0 1 0-.71 10.92 10.92 0 0 1 3-6.93 8.43 8.43 0 0 1 1.84-1.5c.21-.12.42-.23.62-.32a3.9 3.9 0 0 1 1.73-.36H361.85a2.46 2.46 0 0 1 1.92 1.51c1 2.29-.16 6.29-2.65 8.92a6.93 6.93 0 0 1-3.12 2.21ZM384.85 118h-.12l-1.58-.09a.25.25 0 0 1-.27-.25v-.74a6.74 6.74 0 0 0 0-.79.76.76 0 0 1 .17-.47l1.78-2.15a.47.47 0 0 0 .1-.44l-.84-1.86-.05-.06c-.07 0-.17 0-.27.08l-1.91 1.77a.35.35 0 0 1-.42.07 2.81 2.81 0 0 0-.8-.47.3.3 0 0 1-.19-.33l.58-2.65a.18.18 0 0 0-.08-.19.48.48 0 0 0-.18 0l-1.85.19a.51.51 0 0 0-.4.28l-1 2.69a.87.87 0 0 1-.41.39 8.36 8.36 0 0 0-1.14.66c-.16.11-.33.11-.4 0l-.95-1.44c-.06-.11-.22-.08-.34 0l-2 2.15a.56.56 0 0 0-.16.44l.57 1.92a.67.67 0 0 1-.1.46 15.48 15.48 0 0 0-.94 1.62.72.72 0 0 1-.44.33l-1.74.42a.58.58 0 0 0-.39.32l-.88 3a.21.21 0 0 0 .22.27l1.59.09a.25.25 0 0 1 .27.25 8.71 8.71 0 0 0 0 1.53.7.7 0 0 1-.17.47l-1.77 2.15a.48.48 0 0 0-.11.44l.84 1.86.05.05h.08a.37.37 0 0 0 .21-.09l1.89-1.73a.33.33 0 0 1 .41-.07 3 3 0 0 0 .81.47.3.3 0 0 1 .19.33l-.59 2.65a.18.18 0 0 0 .08.18.29.29 0 0 0 .17 0l1.85-.19a.51.51 0 0 0 .4-.28l1-2.69a.84.84 0 0 1 .4-.39c.2-.09.39-.2.59-.31l.56-.35c.15-.11.33-.12.39 0l.95 1.44a.12.12 0 0 0 .05.05.26.26 0 0 0 .29-.09l2-2.15a.56.56 0 0 0 .16-.44l-.57-1.92a.68.68 0 0 1 .11-.46 13.81 13.81 0 0 0 .93-1.62.75.75 0 0 1 .44-.33l1.74-.42a.55.55 0 0 0 .39-.33l.88-2.94a.19.19 0 0 0-.08-.29Zm-9.28 7.19H374.87a1.84 1.84 0 0 1-1.74-1.17 3 3 0 0 1-.26-1 4.58 4.58 0 0 1 0-.53 8.24 8.24 0 0 1 2.3-5.26 6.16 6.16 0 0 1 1.4-1.14 5.06 5.06 0 0 1 .43-.09 3 3 0 0 1 1.32-.27h.22a1.85 1.85 0 0 1 1.45 1.15c.78 1.73-.12 4.76-2 6.76a5.32 5.32 0 0 1-2.42 1.59Z" style="fill:#455a64"/></g><g id="freepik--characters-and-desk--inject-1--inject-229"><g id="freepik--Character--inject-1--inject-229"><path d="m238.39 225.05-6.16-3.49a7.1 7.1 0 0 1-3.58-6.15v-32.54h3.27v32.54a3.79 3.79 0 0 0 1.92 3.31l6.16 3.5Z" style="fill:#263238"/><path d="M220.14 194.75a4.14 4.14 0 0 1-1.81-3.27v-29a3.79 3.79 0 0 1 2-3.15l32.08-14.82a4.7 4.7 0 0 1 3.82.11 4.14 4.14 0 0 1 1.81 3.27v29a3.79 3.79 0 0 1-2 3.15L224 194.86a4.7 4.7 0 0 1-3.86-.11Z" style="fill:#455a64"/><path d="m225.55 164.44-6.61-3.82a3.61 3.61 0 0 0-.61 1.87v29a4.14 4.14 0 0 0 1.81 3.27 4.7 4.7 0 0 0 3.82.11l1.59-.74Z" style="fill:#263238"/><path d="m224 161.42 32-14.81a1.31 1.31 0 0 1 2 1.29v29a3.79 3.79 0 0 1-2 3.15l-32 14.81a1.32 1.32 0 0 1-2-1.29v-29a3.81 3.81 0 0 1 2-3.15Z" style="fill:#37474f"/><path d="M231 226.92v54.42a1.61 1.61 0 0 1-.72 1.26l-1.94 1.12a1.61 1.61 0 0 1-1.45 0L225 282.6a1.61 1.61 0 0 1-.72-1.26v-54.42a2.44 2.44 0 0 1 2.44-2.44h1.88a2.44 2.44 0 0 1 2.4 2.44Z" style="fill:#263238"/><path d="M226 224.48a1.69 1.69 0 0 1 1.69 1.69v57.23c0 .4-.28.57-.63.37l-2.06-1.19a1.54 1.54 0 0 1-.69-1.2v-55.21a1.69 1.69 0 0 1 1.69-1.69Z" style="fill:#37474f"/><path d="M267.68 246v56a1.59 1.59 0 0 1-.72 1.25l-1.96 1.18a1.61 1.61 0 0 1-1.45 0l-1.94-1.12a1.59 1.59 0 0 1-.72-1.25V246a.84.84 0 0 1 .83-.84h5.11a.84.84 0 0 1 .85.84Z" style="fill:#263238"/><path d="M261.74 245.19h1.72a.84.84 0 0 1 .83.84v58c0 .46-.32.64-.72.41l-1.94-1.12a1.59 1.59 0 0 1-.72-1.25V246a.84.84 0 0 1 .83-.81Z" style="fill:#37474f"/><path d="M224.27 225.76v.75a4.85 4.85 0 0 0 1.8 3.52l36.42 25.4a3.74 3.74 0 0 0 3.73.19L312 229.16a4.22 4.22 0 0 0 1.93-3.33v-.77a3.78 3.78 0 0 0-2-3.16L266.89 201a4.84 4.84 0 0 0-3.94.18l-36.76 21.24a4.27 4.27 0 0 0-1.92 3.34Z" style="fill:#37474f"/><path d="M226.19 222.42 263 201.18a4.84 4.84 0 0 1 3.94-.18L312 221.9c1.12.52 1.16 1.43.09 2l-45.87 26.5a3.72 3.72 0 0 1-3.73-.19l-36.42-25.37a1.34 1.34 0 0 1 .12-2.42Z" style="fill:#455a64"/><g id="freepik--Boy--inject-1--inject-229"><path transform="rotate(180 283.565 315.225)" style="fill:#ffa8a7" d="M278.83 307.12h9.46v16.2h-9.46z"/><path style="fill:#ffa8a7" d="m306.24 303.18 9.46.32.48-17.15-9.46-.32-.48 17.15z"/><path d="M288.3 319.07v-1.68c1 .43 5.46 9.9 9.54 13.62 3.25 3 9 7 8.81 9.82-.18 3.62-5.34 5.23-9.8 4.18-3.48-.82-8.45-2.93-10.84-5.5s-3.16-6-4.4-7.65-4.12-3.56-4.79-5.51c-.37-1.07.07-3.42.59-5.4.47-1.82 1-3.82 1.61-3.65v1.12c.75.83 2.81 1.65 5.14 1.74 1.51.06 4.15.06 4.14-1.09ZM315.8 300.58c.49 0 .89.71 2 1.89 1.31 1.41 4.24 2.9 6.35 3.95 3.55 1.78 12.82 4.16 15.94 5.56 1.95.88 1.46 3.91-1.3 5.61-2.06 1.27-8.62 2.49-14.46 1.19-3.18-.72-8-2.92-10.38-3.29-2.6-.41-7.37-.91-9.3-2.24s-1.16-4.18-.61-6.63c.59-2.67 1.45-6.76 2.33-6.58v.84c1.14 1.73 6.93 2.43 9.43 1.16Z" style="fill:#263238"/><path d="M240.71 208.58c-2.07 14.63.72 17.44 14.62 31.45 7.48 7.53 19.52 18.58 19.52 18.58s-.17 4.67-.27 15.15c-.09 9.22 3.77 39.25 3.77 39.25s6.28 2.64 10.59-.1c0 0 1.95-22.34 3-34 1.43-15.78 2.17-23.69 1.37-27.09-.71-3-14.86-20.85-18.13-25.87l30.07 17.47a102.34 102.34 0 0 0-.88 13.35c.33 12.53 1.87 37.54 1.87 37.54s6.89 3.08 10.3.42c0 0 8.67-54.7 8.67-59.19 0-6.82-29.63-27.18-35.24-31.93-3.2-2.7-6.77-5.59-6.77-5.59Z" style="fill:#fc7c30"/><path d="M240.71 208.58c-2.07 14.63.72 17.44 14.62 31.45 7.48 7.53 19.52 18.58 19.52 18.58s-.17 4.67-.27 15.15c-.09 9.22 3.77 39.25 3.77 39.25s6.28 2.64 10.59-.1c0 0 1.95-22.34 3-34 1.43-15.78 2.17-23.69 1.37-27.09-.71-3-14.86-20.85-18.13-25.87l30.07 17.47a102.34 102.34 0 0 0-.88 13.35c.33 12.53 1.87 37.54 1.87 37.54s6.89 3.08 10.3.42c0 0 8.67-54.7 8.67-59.19 0-6.82-29.63-27.18-35.24-31.93-3.2-2.7-6.77-5.59-6.77-5.59Z" style="opacity:.3"/><path d="M275.18 226a21.6 21.6 0 0 0 6.87-9.8 48.18 48.18 0 0 1-1.07 7.46c-.81 3.25 24.27 19.81 24.27 19.81Z" style="opacity:.1"/><path d="M292.6 174.59s1.66-14.92 1.66-20.38c0-5.85-2.47-9.31-10.07-9.48 0 0-5.52 37.76-2.53 40.61 1.64 1.56 8.8 3.91 15.92 6l3.93-11.34c-2.68-1.6-5.64-3.4-8.91-5.41Z" style="fill:#ffa8a7"/><path d="M283 144.17s6.28.16 9.07 2.83 2.86 4.95 2.57 9.88-1.27 17.72-1.27 17.72-4.72 4.46-15.32 4Z" style="fill:#e0e0e0"/><path d="M252.64 152.66c-2.25 3.38-8.9 20.44-12.17 57.56 6.64 7.22 39.34 8.81 49.5-6.58 0 0 3.42-30.84 3.35-38.21-.05-5.11-.19-17.45-9.13-20.7h-11.71L259.13 147a17.06 17.06 0 0 0-6.49 5.66Z" style="fill:#f5f5f5"/><path d="M271.7 115a13.44 13.44 0 1 0 14.06-12.79A13.43 13.43 0 0 0 271.7 115ZM261.47 124.11s1.69 10.32 2.48 12a4.64 4.64 0 0 0 2.57 2.28l.19-7.19ZM264.89 109.6a5.05 5.05 0 0 0-4.24 1.27c-1.87 1.74-1.15 7.52.82 13.24l4.07.66Z" style="fill:#263238"/><path d="M266.77 124.83c-.84.45-1.94-1.18-2.9-2.29s-4.21-2.71-6 .69 1.07 8.29 3.63 9.23c4.42 1.62 5.23-1.22 5.23-1.22l-.42 16.2c3.66 4.5 17.68 8.49 14.62.26l.22-4.93a28.46 28.46 0 0 0 6 .6c3.33-.35 5.53-2.86 6.7-6.38 1.88-5.66 2.71-10.27 1.88-21.62-.91-12.43-15.29-13.24-23.29-8.72s-5.67 18.18-5.67 18.18Z" style="fill:#ffa8a7"/><path d="M266.71 126.21c-.37-.19-1.87-2.69-2.84-3.67-1.36-1.35 1-12.94 1-12.94a5.54 5.54 0 0 1 1.65-5.84 11.7 11.7 0 0 1 11.28-3.26 109.61 109.61 0 0 0 10.83 1.88 24.87 24.87 0 0 0 11.23-1.33 11.5 11.5 0 0 1-.7 6 9.31 9.31 0 0 1-3.86 4.23c-1.92 1.11-3.87 1.78-7.88 1.94a45.1 45.1 0 0 1-14.65-1.58c-1.51-.28-1.91 1.18-2.92 5.18-.85 3.46.05 11.1-3.14 9.39Z" style="fill:#263238"/><path d="M264.86 110.51 260 107.6a2.74 2.74 0 0 1 3.82-1.06 3 3 0 0 1 1.04 3.97Z" style="fill:#263238"/><path d="M281.13 142.77s-7.3-1.83-9.81-3.32a8.49 8.49 0 0 1-3.39-3.69 11.59 11.59 0 0 0 1.83 4.25c1.76 2.5 11.28 4.72 11.28 4.72Z" style="fill:#f28f8f"/><path d="M283 124.41a1.48 1.48 0 1 1-1.41-1.61 1.53 1.53 0 0 1 1.41 1.61ZM281.7 119.31l-3.24 1.6a1.9 1.9 0 0 1 .86-2.48 1.75 1.75 0 0 1 2.38.88Z" style="fill:#263238"/><path d="m280.88 133.87 3.31 1.43a1.77 1.77 0 0 1-2.34 1 1.9 1.9 0 0 1-.97-2.43Z" style="fill:#f28f8f"/><path d="m294.5 120.77-2.77-2.35a1.74 1.74 0 0 1 2.52-.27 1.9 1.9 0 0 1 .25 2.62ZM293.62 123.87a1.48 1.48 0 1 1-1.4-1.61 1.5 1.5 0 0 1 1.4 1.61Z" style="fill:#263238"/><path style="fill:#f28f8f" d="m287.12 122.25-1.23 8.88 5.42-.33-4.19-8.55z"/></g><path style="fill:#455a64" d="m253.08 319.41-83.94-48.46 157.53-90.91 83.93 48.46-157.52 90.91z"/><path style="fill:#263238" d="M169.14 270.95v96.92l4.42 2.55v-66.31l75.1 43.36v66.31l4.42 2.55v-96.92l-83.94-48.46z"/><path d="m173.56 370.42 4.42-2.55v-61.21l-4.42-2.55v66.31z"/><path style="fill:#37474f" d="m253.08 416.33 4.42-2.55v-66.31l148.69-85.81v66.31l4.41-2.55V228.5l-157.52 90.91v96.92z"/><path style="fill:#263238" d="m406.19 327.97-4.42-2.55v-61.21l4.42-2.55v66.31z"/><path d="M252.43 262.27 219 281.58a2.1 2.1 0 0 1-1.89 0l-24.62-14.21a.58.58 0 0 1 0-1.09L225.92 247a2.08 2.08 0 0 1 1.88 0l24.63 14.22a.58.58 0 0 1 0 1.05Z" style="fill:#ebebeb"/><path d="m227.8 247 23.38 13.5L219 279.06a2.1 2.1 0 0 1-1.89 0l-23.38-13.5L225.92 247a2.08 2.08 0 0 1 1.88 0Z" style="fill:#e0e0e0"/><path d="M252.43 258.86 219 278.18a2.1 2.1 0 0 1-1.89 0L192.46 264a.58.58 0 0 1 0-1.09l33.46-19.32a2.08 2.08 0 0 1 1.88 0l24.63 14.22a.57.57 0 0 1 0 1.05Z" style="fill:#fafafa"/><path d="M279.91 224.86v-.37a2.08 2.08 0 0 1 .94-1.63l55.55-32.07a2.08 2.08 0 0 1 1.88 0l11.37 6.56a2.08 2.08 0 0 1 .94 1.63v.38a2.08 2.08 0 0 1-.94 1.63l-55.54 32.07a2.1 2.1 0 0 1-1.89 0l-11.37-6.57a2.08 2.08 0 0 1-.94-1.63Z" style="fill:#e0e0e0"/><path d="m280.85 223.94 11.37 6.57a2.08 2.08 0 0 0 1.88 0l55.55-32.07a.58.58 0 0 0 0-1.09l-11.37-6.56a2.08 2.08 0 0 0-1.88 0l-55.55 32.07a.57.57 0 0 0 0 1.08Z" style="fill:#fafafa"/><path d="M333.08 198.26c-1-1.61-6.31-6.33-7.35-7.3s-5.57-1.63-9.54-2.87c-3.63-1.68-8.39-4.34-14.68-8.09l-3.93 11.32c5.89 1.71 11.77 3.23 14.49 4 2.29.88 2.21 1.56 4.08 2.62 3.46 2 5.72 1.58 5.72 1.58a31.57 31.57 0 0 0 3.27 2.71c2.46 1.68 4.92 3 7.94 2 3.31-1.08.98-4.35 0-5.97Z" style="fill:#ffa8a7"/><path d="M319.08 271c3.22-3.29 5.12-11.5 2-14.1h-16c-3.14 2.6-1.25 10.8 2 14.09l.09.09a.57.57 0 0 0 .11.11 2.43 2.43 0 0 0 .29.26l.08.06a2.51 2.51 0 0 0 .24.19l.41.26a10.61 10.61 0 0 0 9.6 0 4.94 4.94 0 0 0 .42-.27l.23-.17.09-.07.28-.25.13-.13Z" style="fill:#ebebeb"/><path d="M306.46 255.85c-3.65 2.1-3.65 5.52 0 7.62a14.58 14.58 0 0 0 13.21 0c3.64-2.1 3.64-5.52 0-7.62a14.58 14.58 0 0 0-13.21 0Z" style="fill:#fafafa"/><path d="M309 257.34c-2.21 1.28-2.21 3.36 0 4.64a8.9 8.9 0 0 0 8 0c2.22-1.28 2.22-3.36 0-4.64a8.9 8.9 0 0 0-8 0Z" style="fill:#ebebeb"/><path d="M317.08 259.54a8.9 8.9 0 0 0-8 0 3.88 3.88 0 0 0-1.33 1.22A3.88 3.88 0 0 0 309 262a8.9 8.9 0 0 0 8 0 3.7 3.7 0 0 0 1.33-1.22 3.7 3.7 0 0 0-1.25-1.24Z" style="fill:#e0e0e0"/><path d="M309.53 260.76a18.27 18.27 0 0 1-2.9-3.86c-1.35-2.38-1.59-5.56-.9-5.95s3.52 2.78 3.52 2.78a17 17 0 0 1-.3-4c.12-2.12.64-4 1.24-4.42s2 2.28 2.54 4.21.93 3.52.93 3.52a30.65 30.65 0 0 1 1-4.45c.71-2 1.34-2.46 1.84-2.26s.82 1.13 1 3.81a26.61 26.61 0 0 1-.12 3.82s1-1.09 2.1-2.16 1.73-1.32 2.08-1.1.44 2-1.44 5.44a19 19 0 0 1-3.55 4.67s-2.57 1.63-7.04-.05ZM296.85 286.55a.61.61 0 0 0 .36-.5v-.77l-37.21-21a1.89 1.89 0 0 0-1.73 0l-33.44 19.3 38.59 22.27Z" style="fill:#fc7c30"/><path d="M296.85 286.55a.61.61 0 0 0 .36-.5v-.77l-37.21-21a1.89 1.89 0 0 0-1.73 0l-33.44 19.3 38.59 22.27Z" style="opacity:.2"/><path d="M296.85 285.8a.53.53 0 0 0 0-1L260 263.53a1.89 1.89 0 0 0-1.73 0l-33.44 19.3 38.59 22.27Z" style="fill:#fc7c30"/><path d="M296.85 285.8a.53.53 0 0 0 0-1L260 263.53a1.89 1.89 0 0 0-1.73 0l-33.44 19.3 38.59 22.27Z" style="opacity:.5"/><path d="m232.53 277.79 24.75-14.29a2 2 0 0 1 1.74 0l34 19.62 3.22-1.87v3.81h-.06c.11.23 0 .49-.29.67l-28.36 16.37-38.59-22.27v-4.16Z" style="fill:#ebebeb"/><path d="M295.87 281.61a.53.53 0 0 0 0-1L259 259.34a1.91 1.91 0 0 0-1.74 0l-28.36 16.37L267.51 298Z" style="fill:#fafafa"/><path style="fill:#e6e6e6" d="M267.51 297.97v4.17l-38.59-22.27v-4.16l38.59 22.26z"/><path d="M267.05 296.34a1.1 1.1 0 0 0 .32.11 1 1 0 0 0 .51 0 .44.44 0 0 0 .16-.06c.26-.14.23-.4-.07-.57a1.12 1.12 0 0 0-.45-.13.94.94 0 0 0-.54.09.1.1 0 0 0-.05 0c-.2.22-.16.4.12.56Z" style="fill:#263238"/><path d="M262.68 299.6a2.25 2.25 0 0 0 .44 1.44 1.55 1.55 0 0 0 1.24.59 2.4 2.4 0 0 0 1.2-.36l.22-.13-.49-.28c-1.18.66-2.12.1-2.12-1.26a4.75 4.75 0 0 1 2.14-3.71 1.42 1.42 0 0 1 1.61-.08 1.14 1.14 0 0 1 .44.64 1 1 0 0 0 .51 0 1.79 1.79 0 0 0-.36-.76 1.55 1.55 0 0 0-1.24-.58 2.45 2.45 0 0 0-1.21.37 5.17 5.17 0 0 0-2.38 4.12Z" style="fill:#263238"/><path d="m263.93 295.67 33.28-16.27v.6a1 1 0 0 1-.43.75l-32.85 15.72Z" style="fill:#fc7c30"/><path d="m263.93 295.67 33.28-16.27v.6a1 1 0 0 1-.43.75l-32.85 15.72Z" style="opacity:.2"/><path d="M296.85 279.9c.48-.28.48-.73 0-1L260 257.63a1.89 1.89 0 0 0-1.73 0l-33.44 16.05L263.42 296Z" style="fill:#fc7c30"/><path style="fill:#fc7c30" d="m263.42 305.85-38.59-22.27v-9.91l38.59 22.28v9.9z"/><path style="opacity:.1" d="m263.42 305.85-38.59-22.27v-9.91l38.59 22.28v9.9z"/><path d="M255.81 299.49a1.58 1.58 0 0 0 1.25-.59 2.33 2.33 0 0 0 .44-1.44 5.27 5.27 0 0 0-2.4-4.15 2.4 2.4 0 0 0-1.21-.36c-1 0-1.68.82-1.68 2a5.24 5.24 0 0 0 2.39 4.15 2.43 2.43 0 0 0 1.21.36Z" style="fill:#455a64"/><path d="M257 297.46c0 1.37-1 1.92-2.15 1.24a4.76 4.76 0 0 1-2.14-3.72c0-1.36 1-1.92 2.14-1.23a4.77 4.77 0 0 1 2.15 3.71ZM249.22 292.48v.75c0 1.5-1.06 2.11-2.36 1.36l-16.72-9.65a5.23 5.23 0 0 1-2.36-4.08v-.75c0-1.5 1.06-2.11 2.36-1.36l16.72 9.65a5.22 5.22 0 0 1 2.36 4.08Z" style="fill:#f5f5f5"/><path style="fill:#fc7c30" d="M263.94 305.56v-9.86l-.52.25v9.9l.52-.29z"/><path style="opacity:.2" d="M263.94 305.56v-9.86l-.52.25v9.9l.52-.29z"/><path d="M225.19 272.13a.78.78 0 0 0 .37.59l37.85 21.83a.83.83 0 0 0 .75 0l33.91-17.15v-.76l-38.58-22.27-33.93 17.16a.8.8 0 0 0-.37.6Z" style="fill:#fc7c30"/><path d="M263.78 293.89v.75a.79.79 0 0 1-.38-.09l-37.83-21.82a.8.8 0 0 1-.38-.6.79.79 0 0 1 .38-.6c-.21.12-.21.31 0 .43l37.83 21.84a.69.69 0 0 0 .38.09Z" style="opacity:.1"/><path d="m298.07 276.64-33.91 17.16a.71.71 0 0 1-.38.09.69.69 0 0 1-.38-.09L225.57 272c-.21-.12-.21-.31 0-.43l33.93-17.16Z" style="opacity:.5"/><path d="M298.07 276.64v.76l-33.91 17.15a.71.71 0 0 1-.38.09v-.75a.71.71 0 0 0 .38-.09Z" style="opacity:.2"/><path style="fill:#fc7c30" d="m297.56 276.94-38.6-22.26v-9.92l38.6 22.38v9.8z"/><path style="opacity:.7" d="m297.56 276.94-38.6-22.26v-9.92l38.6 22.38v9.8z"/><path d="M225.66 266.79a1.06 1.06 0 0 0-.48.82v2a1 1 0 0 0 .48.81l37.65 21.72a1 1 0 0 0 .94 0L293 276.6v-3.09l-38.58-22.27Z" style="fill:#ebebeb"/><path d="m254.42 251.24-28.76 15.55a.29.29 0 0 0 0 .55l37.65 21.72a1 1 0 0 0 .94 0L293 273.51Z" style="fill:#fafafa"/><path d="M289.34 273.76a1.1 1.1 0 0 0 .32.11 1 1 0 0 0 .51 0 .44.44 0 0 0 .16-.06c.26-.14.23-.4-.07-.57a1.12 1.12 0 0 0-.45-.13.94.94 0 0 0-.54.09c-.27.18-.21.4.07.56Z" style="fill:#263238"/><path d="M263.78 289.16v3.1a1 1 0 0 1-.48-.11l-37.65-21.71a1.07 1.07 0 0 1-.46-.82v-2a1.06 1.06 0 0 1 .35-.73c-.14.14-.1.33.11.46l37.65 21.71a.85.85 0 0 0 .48.1Z" style="fill:#e6e6e6"/><path d="M294.37 269.47a1.89 1.89 0 0 0-1.95.11 6.73 6.73 0 0 0-2.66 3.94l.64.1a6.12 6.12 0 0 1 2.34-3.49 1.83 1.83 0 0 1 .81-.25.89.89 0 0 1 .49.14 2.39 2.39 0 0 1 .77 2.19c-.06 2.06-1.23 4.38-2.62 5.18a1.58 1.58 0 0 1-1 .24l-.7.4a1.58 1.58 0 0 0 .82.22 2.23 2.23 0 0 0 1.13-.34c1.58-.91 2.87-3.42 2.94-5.71a3 3 0 0 0-1.01-2.73Z" style="fill:#263238"/><path d="M225.19 265.83a.8.8 0 0 0 .37.6l37.85 21.83a.83.83 0 0 0 .75 0l33.91-20.73v-.75l-38.58-22.28-33.93 20.74a.78.78 0 0 0-.37.59Z" style="fill:#fc7c30"/><path d="M263.78 287.59v.75a.92.92 0 0 1-.38-.08l-37.83-21.83a.66.66 0 0 1 0-1.2.23.23 0 0 0 0 .44l37.83 21.84a.79.79 0 0 0 .38.08Z" style="opacity:.1"/><path d="m298.07 266.78-33.91 20.73a.81.81 0 0 1-.38.08.79.79 0 0 1-.38-.08l-37.83-21.84a.23.23 0 0 1 0-.44l33.93-20.73Z" style="fill:#fc7c30"/><path d="M298.07 266.78v.75l-33.91 20.73a.81.81 0 0 1-.38.08v-.75a.81.81 0 0 0 .38-.08Z" style="opacity:.2"/><path style="fill:#fc7c30" d="M298.07 276.64v-9.85l-.51.35v9.8l.51-.3z"/><path style="opacity:.2" d="M298.07 276.64v-9.85l-.51.35v9.8l.51-.3z"/><path d="M296.85 266.63a.61.61 0 0 0 .36-.5v-.77l-37.21-21a2 2 0 0 0-1.73 0l-33.44 19.31 38.59 22.27Z" style="fill:#fc7c30"/><path d="M296.85 266.63a.61.61 0 0 0 .36-.5v-.77l-37.21-21a2 2 0 0 0-1.73 0l-33.44 19.31 38.59 22.27Z" style="opacity:.2"/><path d="M296.85 265.88c.48-.28.48-.73 0-1L260 243.6a2 2 0 0 0-1.73 0l-33.44 19.31 38.59 22.27Z" style="fill:#fc7c30"/><path d="M296.85 265.88c.48-.28.48-.73 0-1L260 243.6a2 2 0 0 0-1.73 0l-33.44 19.31 38.59 22.27Z" style="opacity:.5"/><path d="m232.53 257.87 24.75-14.29a1.91 1.91 0 0 1 1.74 0l34 19.62 3.22-1.88v3.82h-.06a.52.52 0 0 1-.29.68l-28.36 16.36L228.92 260v-4.17Z" style="fill:#ebebeb"/><path d="M295.87 261.69a.53.53 0 0 0 0-1L259 239.41a2 2 0 0 0-1.74 0l-28.36 16.37 38.59 22.27Z" style="fill:#fafafa"/><path style="fill:#e6e6e6" d="M267.51 278.05v4.16l-38.59-22.26v-4.17l38.59 22.27z"/><path d="M267.05 276.42a1.1 1.1 0 0 0 .32.11 1 1 0 0 0 .51 0 .44.44 0 0 0 .16-.06c.26-.14.23-.4-.07-.57a1.12 1.12 0 0 0-.45-.13.94.94 0 0 0-.54.09.1.1 0 0 0-.05 0c-.2.14-.16.4.12.56Z" style="fill:#263238"/><path d="M262.68 279.68a2.25 2.25 0 0 0 .44 1.44 1.55 1.55 0 0 0 1.24.59 2.4 2.4 0 0 0 1.2-.36l.22-.13-.49-.28c-1.18.66-2.12.1-2.12-1.26a4.75 4.75 0 0 1 2.14-3.71 1.42 1.42 0 0 1 1.61-.08 1.14 1.14 0 0 1 .44.64 1 1 0 0 0 .51 0 1.79 1.79 0 0 0-.36-.76 1.55 1.55 0 0 0-1.24-.58 2.43 2.43 0 0 0-1.21.36 5.2 5.2 0 0 0-2.38 4.13Z" style="fill:#263238"/><path d="m263.93 275.74 33.28-16.26v.52a1 1 0 0 1-.43.75l-32.85 15.75Z" style="fill:#fc7c30"/><path d="m263.93 275.74 33.28-16.26v.52a1 1 0 0 1-.43.75l-32.85 15.75Z" style="opacity:.2"/><path d="M296.85 260c.48-.27.48-.72 0-1L260 237.7a2 2 0 0 0-1.73 0l-33.44 16.06L263.42 276Z" style="fill:#fc7c30"/><path style="fill:#fc7c30" d="m263.42 285.93-38.59-22.27v-9.92l38.59 22.29v9.9z"/><path style="opacity:.1" d="m263.42 285.93-38.59-22.27v-9.92l38.59 22.29v9.9z"/><path d="M255.81 279.57a1.58 1.58 0 0 0 1.25-.59 2.33 2.33 0 0 0 .44-1.44 5.27 5.27 0 0 0-2.4-4.15 2.4 2.4 0 0 0-1.21-.36c-1 0-1.68.82-1.68 2a5.24 5.24 0 0 0 2.39 4.15 2.43 2.43 0 0 0 1.21.36Z" style="fill:#455a64"/><path d="M257 277.54c0 1.36-1 1.92-2.15 1.23a4.73 4.73 0 0 1-2.14-3.71c0-1.37 1-1.92 2.14-1.24a4.8 4.8 0 0 1 2.15 3.72ZM249.22 272.56v.75c0 1.5-1.06 2.11-2.36 1.36L230.14 265a5.2 5.2 0 0 1-2.36-4.08v-.75c0-1.5 1.06-2.11 2.36-1.35l16.72 9.65a5.22 5.22 0 0 1 2.36 4.09Z" style="fill:#f5f5f5"/><path style="fill:#fc7c30" d="M263.94 285.63v-9.86l-.52.26v9.9l.52-.3z"/><path style="opacity:.2" d="M263.94 285.63v-9.86l-.52.26v9.9l.52-.3z"/><path d="M225.19 251.61a.8.8 0 0 0 .37.6L263.41 274a.83.83 0 0 0 .75 0l33.91-17.15v-.76l-38.58-22.27L225.56 251a.8.8 0 0 0-.37.61Z" style="fill:#fc7c30"/><path d="M263.78 273.38v.75a.92.92 0 0 1-.38-.09l-37.83-21.83a.66.66 0 0 1 0-1.19c-.21.12-.21.31 0 .43l37.83 21.84a.79.79 0 0 0 .38.09Z" style="opacity:.1"/><path d="m298.07 256.13-33.91 17.16a.82.82 0 0 1-.38.09.79.79 0 0 1-.38-.09l-37.83-21.84c-.21-.12-.21-.31 0-.43l33.93-17.16Z" style="opacity:.5"/><path d="M298.07 256.13v.76L264.16 274a.71.71 0 0 1-.38.09v-.75a.82.82 0 0 0 .38-.09Z" style="opacity:.2"/><path style="fill:#fc7c30" d="m297.56 256.43-38.6-22.26v-9.92l38.6 22.38v9.8z"/><path style="opacity:.7" d="m297.56 256.43-38.6-22.26v-9.92l38.6 22.38v9.8z"/><path d="M225.66 246.28a1.06 1.06 0 0 0-.48.82v2a1.06 1.06 0 0 0 .48.82l37.65 21.72a1 1 0 0 0 .94 0L293 256.09V253l-38.58-22.28Z" style="fill:#ebebeb"/><path d="m254.42 230.72-28.76 15.56a.28.28 0 0 0 0 .54l37.65 21.73a1 1 0 0 0 .94 0L293 253Z" style="fill:#fafafa"/><path d="M289.34 253.25a1.1 1.1 0 0 0 .32.11 1 1 0 0 0 .51 0 .44.44 0 0 0 .16-.06c.26-.14.23-.4-.07-.57a1.12 1.12 0 0 0-.45-.13.94.94 0 0 0-.54.09c-.27.18-.21.4.07.56Z" style="fill:#263238"/><path d="M263.78 268.65v3.1a1 1 0 0 1-.48-.11l-37.65-21.72a1 1 0 0 1-.46-.81v-2a1 1 0 0 1 .35-.73c-.14.14-.1.32.11.45l37.65 21.72a.85.85 0 0 0 .48.1Z" style="fill:#e6e6e6"/><path d="M294.37 249a1.89 1.89 0 0 0-1.95.12 6.73 6.73 0 0 0-2.66 3.94l.64.1a6.09 6.09 0 0 1 2.34-3.49 1.71 1.71 0 0 1 .81-.25 1 1 0 0 1 .49.13 2.41 2.41 0 0 1 .77 2.2c-.06 2.06-1.23 4.38-2.62 5.18a1.58 1.58 0 0 1-1 .24l-.7.4a1.68 1.68 0 0 0 .82.22 2.23 2.23 0 0 0 1.13-.34c1.58-.91 2.87-3.42 2.94-5.71a3 3 0 0 0-1.01-2.74Z" style="fill:#263238"/><path d="M225.19 245.32a.78.78 0 0 0 .37.59l37.85 21.83a.83.83 0 0 0 .75 0L298.07 247v-.76L259.49 224l-33.93 20.73a.8.8 0 0 0-.37.59Z" style="fill:#fc7c30"/><path d="M263.78 267.08v.75a.79.79 0 0 1-.38-.09l-37.83-21.82a.8.8 0 0 1-.38-.6.79.79 0 0 1 .38-.6c-.21.12-.21.32 0 .43L263.4 267a.69.69 0 0 0 .38.08Z" style="opacity:.1"/><path d="M298.07 246.26 264.16 267a.71.71 0 0 1-.38.09.69.69 0 0 1-.38-.09l-37.83-21.84c-.21-.11-.21-.31 0-.43L259.5 224Z" style="fill:#fc7c30"/><path d="M298.07 246.26v.74l-33.91 20.72a.71.71 0 0 1-.38.09v-.75a.71.71 0 0 0 .38-.09Z" style="opacity:.2"/><path style="fill:#fc7c30" d="M298.07 256.13v-9.85l-.51.35v9.8l.51-.3z"/><path style="opacity:.2" d="M298.07 256.13v-9.85l-.51.35v9.8l.51-.3z"/><path d="M296.85 246.11a.59.59 0 0 0 .36-.49v-.77l-37.21-21a2 2 0 0 0-1.73 0l-33.44 19.31 38.59 22.26Z" style="fill:#fc7c30"/><path d="M296.85 246.11a.59.59 0 0 0 .36-.49v-.77l-37.21-21a2 2 0 0 0-1.73 0l-33.44 19.31 38.59 22.26Z" style="opacity:.2"/><path d="M296.85 245.36c.48-.27.48-.72 0-1L260 223.09a2 2 0 0 0-1.73 0l-33.44 19.31 38.59 22.26Z" style="fill:#fc7c30"/><path d="M296.85 245.36c.48-.27.48-.72 0-1L260 223.09a2 2 0 0 0-1.73 0l-33.44 19.31 38.59 22.26Z" style="opacity:.5"/><path d="m232.53 237.35 24.75-14.28a1.91 1.91 0 0 1 1.74 0l34 19.62 3.22-1.88v3.82h-.06c.11.24 0 .49-.29.68l-28.38 16.39-38.59-22.26v-4.17Z" style="fill:#ebebeb"/><path d="M295.87 241.17a.53.53 0 0 0 0-1L259 218.9a1.91 1.91 0 0 0-1.74 0l-28.36 16.37 38.59 22.27Z" style="fill:#fafafa"/><path style="fill:#e6e6e6" d="M267.51 257.54v4.16l-38.59-22.26v-4.17l38.59 22.27z"/><path d="M267.05 255.91a1.1 1.1 0 0 0 .32.11 1 1 0 0 0 .51 0 .44.44 0 0 0 .12-.02c.26-.14.23-.4-.07-.57a1.12 1.12 0 0 0-.45-.13.94.94 0 0 0-.54.09.1.1 0 0 0-.05 0c-.16.14-.12.36.16.52Z" style="fill:#263238"/><path d="M262.68 259.17a2.25 2.25 0 0 0 .44 1.44 1.55 1.55 0 0 0 1.24.59 2.4 2.4 0 0 0 1.2-.36l.22-.13-.49-.28c-1.18.66-2.12.1-2.12-1.26a4.75 4.75 0 0 1 2.14-3.71 1.42 1.42 0 0 1 1.61-.08 1.14 1.14 0 0 1 .44.64 1 1 0 0 0 .51 0 1.79 1.79 0 0 0-.36-.76 1.55 1.55 0 0 0-1.24-.58 2.43 2.43 0 0 0-1.21.36 5.2 5.2 0 0 0-2.38 4.13Z" style="fill:#263238"/><path d="M263.93 255.23 297.21 239v.54a1 1 0 0 1-.43.75L263.93 256Z" style="fill:#fc7c30"/><path d="M263.93 255.23 297.21 239v.54a1 1 0 0 1-.43.75L263.93 256Z" style="opacity:.2"/><path d="M296.85 239.46c.48-.27.48-.72 0-1L260 217.19a1.89 1.89 0 0 0-1.73 0l-33.44 16.05 38.59 22.27Z" style="fill:#fc7c30"/><path style="fill:#fc7c30" d="m263.42 265.41-38.59-22.26v-9.92l38.59 22.28v9.9z"/><path style="opacity:.1" d="m263.42 265.41-38.59-22.26v-9.92l38.59 22.28v9.9z"/><path d="M255.81 259.05a1.58 1.58 0 0 0 1.25-.59 2.31 2.31 0 0 0 .44-1.44 5.24 5.24 0 0 0-2.4-4.14 2.4 2.4 0 0 0-1.21-.36c-1 0-1.68.81-1.68 2a5.2 5.2 0 0 0 2.39 4.14 2.43 2.43 0 0 0 1.21.36Z" style="fill:#455a64"/><path d="M257 257c0 1.37-1 1.92-2.15 1.24a4.73 4.73 0 0 1-2.14-3.71c0-1.37 1-1.92 2.14-1.24A4.78 4.78 0 0 1 257 257ZM249.22 252.05v.75c0 1.5-1.06 2.11-2.36 1.36l-16.72-9.66a5.22 5.22 0 0 1-2.36-4.08v-.75c0-1.5 1.06-2.11 2.36-1.36l16.72 9.69a5.2 5.2 0 0 1 2.36 4.05Z" style="fill:#f5f5f5"/><path style="fill:#fc7c30" d="M263.94 265.12v-9.86l-.52.25v9.9l.52-.29z"/><path style="opacity:.2" d="M263.94 265.12v-9.86l-.52.25v9.9l.52-.29z"/><path d="M278.55 215.73c-6-1.74-27.38-7.73-33.88-9.83-4.53-1.47-7-2.51-7.09-6.42-.12-3.64 5.28-33.45 7.23-40.8 1.72-6.44 8.5-11.31 14.32-11.68 1.95 6.44 2.92 21-2.2 25.52-1.9 7.57-4.12 21.34-4.12 21.34s10.95 5.69 19.64 9.88c4.34 2.09 10.15 4 13.61 4.36 2.75.29 7.68 1.58 8.73 2.55a81.82 81.82 0 0 1 7.06 8.19c1 1.61 3.31 4.88 0 5.93-3 .95-5.48-.34-7.94-2a32.24 32.24 0 0 1-3.28-2.71 12.09 12.09 0 0 1-7.09-1.4c-1.87-1.09-4.99-2.93-4.99-2.93Z" style="fill:#ffa8a7"/><path d="m387.58 219.42 4-48.15a4.54 4.54 0 0 0-2-4 5 5 0 0 0-4.56.08l-52.72 30.44a5.8 5.8 0 0 0-2.58 4.07l-4 48.14a4.53 4.53 0 0 0 2 4 5.08 5.08 0 0 0 4.57-.09L385 223.48a5.79 5.79 0 0 0 2.58-4.06Z" style="fill:#e0e0e0"/><path d="m387.58 219.42 4-48.15a4.54 4.54 0 0 0-2-4 5 5 0 0 0-4.56.08l-52.72 30.44a5.26 5.26 0 0 0-1.72 1.73l8.2 4.73v45.91L385 223.48a5.79 5.79 0 0 0 2.58-4.06Z" style="fill:#fafafa"/><path d="m330.15 252.57 4-48.14a5.79 5.79 0 0 1 2.57-4.07l52.72-30.44c1.3-.75 2.26-.14 2.14 1.35l-4 48.15a5.79 5.79 0 0 1-2.57 4.06l-52.72 30.44c-1.29.75-2.29.15-2.14-1.35Z" style="fill:#f0f0f0"/><path d="M357.36 213.94a9.2 9.2 0 0 1 3.86-6.48c1.93-1.12 3.33 0 3.13 2.44a9.2 9.2 0 0 1-3.86 6.49c-1.93 1.11-3.33.02-3.13-2.45Z" style="fill:#fc7c30"/><path style="fill:#fafafa" d="m356.44 229.78 17.67-10.21-2.21-1.27-17.66 10.2 2.2 1.28z"/><path d="m377.58 243.07-15.78 9.11a1.89 1.89 0 0 1-1 .23 2 2 0 0 1-.86-.22l-7-4a2 2 0 0 1-.9-1.61v-.37c0-.6.41-.85.94-.55l4.19 2.42.94.54-.21-1.06-3.64-19 2.2 1.28 17.67-10.2 4.21 21.88a1.64 1.64 0 0 1-.76 1.55Z" style="fill:#f5f5f5"/><path style="fill:#e0e0e0" d="m352.31 245.55 5.38-3.11 1.1 7.24-6.48-4.13z"/><path d="m356.44 229.78-2.2-1.28 3.64 19c.12.58-.21.82-.73.52l-4.15-2.4c-.53-.3-.94-.05-.94.55v.37a2 2 0 0 0 .9 1.61l7 4a2 2 0 0 0 .86.22Z" style="fill:#ebebeb"/><path d="M284.87 155.28c-1 2.05-2.72 2.81-5.72 2.95a11.11 11.11 0 0 1-8-3.38l3.85-3.45 4.47 3.83.65-3.91Z" style="fill:#fc7c30"/><path d="M284.87 155.28c-1 2.05-2.72 2.81-5.72 2.95a11.11 11.11 0 0 1-8-3.38l3.85-3.45 4.47 3.83.65-3.91Z" style="opacity:.1"/><path d="M282.61 154a10 10 0 0 1 .24 4 6.9 6.9 0 0 1-1.53 3.22 3.65 3.65 0 0 1-3.22.14 8.71 8.71 0 0 1-2.63-6.81l4 .72Z" style="fill:#fc7c30"/><path d="M281.32 161.18s3.12 26.88 3.18 29-3.39 9.59-5.23 9.54-5-7.18-4.93-9.13 3.76-29.3 3.76-29.3Z" style="fill:#fc7c30"/><path d="M278.1 161.32a3.21 3.21 0 0 0 3.22-.14v.42a3.64 3.64 0 0 1-3.36.45Z" style="opacity:.1"/><path d="M279.51 155.23 266.38 144l.09-3.43s-1.87.35-4.15 5.9a26.46 26.46 0 0 0 10 12.95l3.17-4.9ZM281.13 142.77s1.83.5 3.25 3.41c1.15 2.36 1.29 10.95 1.29 10.95l-3.06-3.13-3.1 1.26c.47-2.83 1.35-8 1.35-8ZM259.13 147s-6.37-.49-10.65 3.51-5 7.43-6.75 17.51-2.91 18.67-2.91 18.67 7.14 5.05 15.9 3.13l3-16.83a45.46 45.46 0 0 0 3.71-10.13c1.32-6.86-.19-13.63-2.3-15.86Z" style="fill:#e0e0e0"/></g></g></svg>