<svg version="1.1" id="Layer_1" xmlns="http://www.w3.org/2000/svg" x="0" y="0" width="100%" viewBox="0 0 896 208" xml:space="preserve"><path fill="#070707" d="M592 209H1.067V1.09h895.898V209H592m-361.083-35.013c6.18-.007 12.028-1.168 17.872-5.018 1.488-.572 3.046-1.007 4.453-1.735 10.021-5.188 18.373-12.208 25.338-21.232 8.606-11.15 13.648-23.398 15.527-37.345 1.24-9.208 1.262-18.123-1.138-27.075-2.667-9.95-6.587-19.219-12.507-27.806-5.406-7.842-12.08-13.803-19.937-19.11-8.197-5.537-16.762-9.313-26.691-11.32-.367-.136-.733-.272-1.452-.976-.397.198-.795.396-1.73-.187-5.284-.061-10.567-.144-15.852-.178-7.055-.045-13.86 1.47-20.542 3.539-9.27 2.87-17.499 7.71-24.946 13.86-4.182 3.453-8.997 6.56-12.039 10.872-4.05 5.743-7.161 12.309-9.734 18.89-2.614 6.687-5.54 13.8-5.649 20.768-.109 7.04-.774 14.235.8 21.52 1.85 8.571 3.308 17.004 8.216 24.49 1.565 2.388 2.182 5.444 3.913 7.665 2.043 2.621 4.819 4.673 7.285 6.964 4.776 4.435 9.002 9.767 14.447 13.117 13.354 8.218 28.189 12.166 43.964 11.868 3.176-.06 6.336-.968 9.505-1.51l.897-.06M389.082 23.451c-.484.23-.969.46-1.66.651 0 0-.177.113-1.038-.016-.867.043-1.733.087-2.794.016 0 0-.221.04-.508-.652-.484.23-.967.462-1.67.653 0 0-.192.114-1.072-.015-1.182.042-2.364.085-3.745.014 0 0-.226.04-.513-.652-.485.23-.97.46-1.582.637 0 0-.129.053-.418-.638-.485.23-.97.46-1.668.65 0 0-.187.113-1-.013-.547.042-1.093.084-1.826.013 0 0-.215.04-.506-.65-.486.23-.971.46-1.675.647 0 0-.191.112-1.135-.016-2.832.04-5.664.08-8.68.011 0 0-.21.044-.51-.643-.487.23-.976.458-1.664.643 0 0-.172.112-.878-.012-.472.039-.944.077-2.166-.046-11.007-1.929-20.46 2.083-29.665 7.487-9.514 5.585-14.329 15.172-18.136 24.364-2.65 6.397-1.538 14.935-.323 22.218 2.01 12.044 9.277 21.043 19.263 28.148 6.322 4.497 13.457 5.921 21.254 7.626.196-.034.392-.067.698 0 0 0 .144-.04.442.664.495-.235.99-.47 1.889-.642h.408s.404-.062.703.643c.494-.234.988-.469 1.876-.65.266.021.528-.006 1.178.68 4.47-.261 8.938-.522 13.513-.693 0 0 .134-.04.433.664.494-.236.987-.472 1.617-.67 0 0 .106-.092 1.078.032 2.892-.04 5.783-.078 8.828-.016 0 0 .178-.045.475.651.493-.225.987-.45 1.776-.628 0 0 .277-.11.628.006 0 0 .369-.032.709.649.804.497 1.556 1.124 2.42 1.469 3.79 1.515 7.754 7.197 7.604 11.027-.31 7.965-6.672 13.906-15.04 13.944-9.45.044-18.902.006-28.354.006h-35.74v30.68c6.133.273 11.66.735 17.184.722 15.657-.038 31.317-.565 46.968-.344 15.718.221 28.359-5.063 37.514-18.21 6.962-9.998 10.513-21.354 8.643-32.967-1.793-11.136-6.773-21.803-16.737-28.7-4.772-3.304-9.75-7.503-15.139-8.463-9.763-1.74-19.9-1.454-29.888-1.82-5.496-.203-11.156.787-16.47-.21-6.052-1.138-10.012-9.001-9.018-15.503.855-5.592 6.678-11.052 12.396-11.167 8.252-.165 16.51-.015 24.766-.012 14.455.006 28.91.002 43.767.002 0-1.981 0-3.847.687-5.963-.245-.467-.49-.934-.705-1.65 0 0-.12-.22.013-1.132-.046-5.793-.091-11.587-.012-17.648 0 0-.028-.295.672-.55-.232-.47-.465-.94-.644-1.959a46.91 46.91 0 0 0-.822-2.661c-.47.23-.938.46-1.747.66 0 0-.316.126-1.145-.016-1.126.042-2.252.083-3.591.008 0 0-.241.035-.52-.659-.479.23-.958.461-1.58.642 0 0-.142.05-.42-.644-.48.231-.961.463-1.674.657 0 0-.205.116-.998-.011-.532.042-1.064.085-1.807.011 0 0-.238.038-.52-.656-.482.232-.964.463-1.67.656 0 0-.197.114-1.14-.015-2.833.041-5.666.082-8.685.012 0 0-.214.04-.504-.651m311.646 79.61c-1.333.014-2.679-.088-3.995.064-4.366.505-7.522-1.304-7.569-5.663-.04-3.7 2.263-6.404 6.634-6.48 4.79-.083 9.575-.551 14.364-.6 10.22-.102 20.442-.021 30.662-.062 3.24-.013 6.668.469 9.678-.41 5.238-1.53.215-5.644 1.475-8.344.133-.286.149-.645.15-.97.008-6.105.005-12.21.005-18.564-1.773 0-2.758.012-3.743-.002-16.257-.222-32.514-.497-48.772-.657-11.685-.115-22.705 2.016-30.592 11.606-5.645 6.865-9.587 14.942-9.198 23.899.293 6.736 1.178 13.852 6.117 19.418 3.28 3.696 5.75 8.923 9.829 10.917 7.013 3.429 14.71 5.846 22.97 5.438 8.849-.436 17.732-.412 26.593-.229 1.764.037 3.775 1.421 5.093 2.757.478.484-.712 2.649-1.185 4.032-1.367 3.994-4.909 3.824-8.02 3.774-9.114-.145-18.22-.72-27.333-.873-9.137-.154-18.28.061-27.42-.005-6.149-.045-6.103-.136-6.384 6.42-.182 4.243-.725 8.48-.718 12.72.006 3.521.579 7.042.91 10.67 12.527 0 24.721-.002 36.916.001 9.58.003 19.213.647 28.73-.13 13.751-1.12 24.684-7.253 30.39-20.652 4.989-11.712 4.908-23.261-2.787-33.633-4.343-5.854-9.642-11.356-17.684-12.412-3.036-.398-6.066-.966-9.116-1.115-8.325-.405-16.659-.627-26-.916m-183.78 62.398c5.851-2.932 10.28-7.502 14.284-12.527 1.694-2.125 2.298-4.062-.242-6.401-4.892-4.504-9.468-9.354-14.114-14.12-1.176-1.207-2.122-2.638-3.703-4.635-7.04 11.05-16.042 19.314-31.041 16.106 6.104-7.343 11.95-14.411 17.837-21.445a2529.624 2529.624 0 0 1 16.175-19.166c4.176-4.89 8.375-9.762 12.676-14.54 3.87-4.299 4.938-8.2 2.15-10.987-5.146-5.148-9.846-10.709-16.964-13.711-11.815-4.984-23.403-8.996-36.68-6.095-12.187 2.664-22.916 7.467-31.268 16.757-7.28 8.098-12.078 17.555-13.904 28.413-1.865 11.095-2.14 22.154 1.996 32.788 2.276 5.851 4.67 11.957 8.447 16.837 3.728 4.817 8.962 8.68 14.08 12.162 7.958 5.413 17.097 8.64 26.633 9.105 11.62.566 22.895-1.785 33.637-8.54m269.019-5.654c1.477 1 3.18 1.78 4.393 3.035 5.255 5.426 12.49 6.939 19.083 9.467 10.197 3.91 21.372 2.835 30.969-.297 10.89-3.555 20.99-10.399 28.06-20.282.564-.79.694-2.758.14-3.347-6.27-6.677-12.713-13.192-19.805-20.463-2.053 3.209-3.387 5.738-5.134 7.94-4.504 5.675-11.309 7.161-17.77 8.974-1.866.524-4.2-.615-6.32-.992 1.035-1.338 2.096-2.657 3.086-4.027.267-.369.203-.987.486-1.33a6080.91 6080.91 0 0 1 20.218-24.543c8.265-9.97 16.613-19.873 24.766-29.933.793-.979 1.189-3.47.55-4.223-3.556-4.183-6.892-8.996-11.41-11.829-10.877-6.822-22.533-12.139-35.983-10.915-2.577.235-5.124.851-7.702 1.02-9.625.63-17.425 6.023-25.465 10.329-3.79 2.029-6.594 6.475-9.015 10.345-3.634 5.81-7.893 11.758-9.41 18.228-1.893 8.066-3.866 16.52-1.736 25.149 1.241 5.031.359 10.95 2.67 15.274 4.123 7.715 9.942 14.524 15.329 22.42M35.59 23.838H22.222v31.654h43.691V172.03h31.46V55.02c6.541 0 12.581.01 18.622-.002 7.254-.014 14.514.095 21.755-.222 1.081-.048 2.917-2.098 2.968-3.284.326-7.506-.155-15.062.457-22.534.35-4.26-1.273-4.987-4.74-4.97-10.987.052-21.974.076-32.96-.015-11.76-.097-23.518-.421-35.278-.48-5.785-.03-11.574.478-17.358.438-4.817-.033-9.631-.511-15.248-.113m510.69 54.907c.25 8.18.64 16.358.717 24.539.111 11.843.013 23.69-.03 35.534-.035 9.948-.2 19.897-.065 29.842.015 1.09 1.596 3.07 2.495 3.097 8.4.239 16.811.141 25.328.141.437-4.052.986-7.592 1.16-11.15.198-4.087-.053-8.195.107-12.285.183-4.643.85-9.276.856-13.914.007-4.746-.641-9.49-.79-14.242-.088-2.816.807-5.757.277-8.449-2.294-11.664 4.343-19.599 13.135-22.432 14.469-4.664 26.55 6.413 26.614 19.11.074 14.961.02 29.924.02 44.887v18.496c8.68 0 16.944-.182 25.192.1 2.885.098 3.952-1.42 4.38-3.465.481-2.297.357-4.741.333-7.12-.118-11.514-.323-23.027-.435-34.54-.074-7.627.859-15.392-.275-22.849-1.549-10.18-4.567-19.972-12.412-27.765-6.498-6.456-12.63-13.05-22.124-14.793-6.098-1.119-12.407-3.503-18.3-2.76-9.077 1.145-18.017 4.175-25.53 10.01-2.989 2.32-5.95 1.492-7.557-1.084-2.898-4.642-5.934-8.189-12.817-6.638 0 5.506 0 11.227-.279 17.73z"/><path fill="#F97137" d="M357.382 24.136s.21-.044.67.194c3.361.118 6.263-.001 9.164-.121 0 0 .191-.112.738-.032.837.042 1.128.003 1.42-.037 0 0 .214-.04.536.159.988.104 1.652.009 2.317-.086 0 0 .187-.114.73-.035.834.04 1.124.001 1.414-.037 0 0 .129-.053.629.032.79.047 1.08.008 1.37-.03 0 0 .225-.04.621.183 1.674.113 2.951.003 4.229-.108 0 0 .192-.114.737-.036.834.039 1.123 0 1.412-.039 0 0 .22-.04.587.178 1.34.11 2.315.002 3.29-.105 0 0 .177-.113.716-.033.83.04 1.12 0 1.41-.04 0 0 .214-.04.676.198 3.363.118 6.265-.001 9.166-.12 0 0 .197-.115.742-.038.832.038 1.12 0 1.407-.04 0 0 .238-.037.567.158.977.103 1.624.012 2.271-.08 0 0 .205-.115.752-.041.832.037 1.119 0 1.405-.037 0 0 .142-.05.643.03.786.045 1.072.008 1.358-.028 0 0 .24-.035.633.182 1.604.117 2.816.017 4.028-.083 0 0 .316-.126.906-.055.868.035 1.147-.002 1.427-.038.184.656.368 1.312.473 2.66-.044.968-.01 1.245.023 1.522 0 0 .028.295-.201.817-.117 6.36-.004 12.2.109 18.038 0 0 .119.22.057.76-.014.813.033 1.087.08 1.36v5.713c-14.856 0-29.312.004-43.767-.002-8.256-.003-16.514-.153-24.766.012-5.718.115-11.54 5.575-12.396 11.167-.994 6.502 2.966 14.365 9.018 15.502 5.314.998 10.974.008 16.47.21 9.988.367 20.125.082 29.888 1.82 5.39.96 10.367 5.16 15.139 8.463 9.964 6.898 14.944 17.565 16.737 28.701 1.87 11.613-1.68 22.969-8.643 32.966-9.155 13.148-21.796 18.432-37.514 18.21-15.651-.22-31.311.307-46.968.345-5.525.013-11.05-.45-17.183-.721v-30.682h35.739c9.452.001 18.903.039 28.354-.005 8.368-.038 14.73-5.979 15.04-13.944.15-3.83-3.813-9.512-7.604-11.027-.864-.345-1.616-.972-2.65-1.89-.44-.515-.64-.49-.83-.344 0 0-.277.11-.869.018-.888-.053-1.185-.014-1.481.024 0 0-.178.045-.631-.18-3.418-.112-6.382.003-9.347.117 0 0-.106.092-.62.003-.81-.042-1.106.007-1.402.055 0 0-.134.04-.588-.193-4.786-.1-9.12.031-13.452.163-.257.077-.519.104-1.428-.02-.939-.052-1.235-.002-1.532.048l-.404.062s-.408 0-1.056-.099c-.945-.053-1.242-.009-1.54.036 0 0-.143.04-.346-.11-.498-.071-.793.008-1.089.087-7.203-1.64-14.338-3.065-20.66-7.562-9.986-7.105-17.253-16.104-19.263-28.148-1.215-7.283-2.327-15.82.323-22.218 3.807-9.192 8.622-18.78 18.136-24.364 9.205-5.404 18.658-9.416 30.214-7.25 1.14.135 1.732.034 2.323-.067 0 0 .172-.112.714-.029.835.042 1.128.002 1.422-.039z"/><path fill="#4A90F9" d="M701.233 103.058c8.836.292 17.17.514 25.495.92 3.05.148 6.08.716 9.116 1.114 8.042 1.056 13.34 6.558 17.684 12.412 7.695 10.372 7.776 21.92 2.788 33.633-5.707 13.399-16.64 19.531-30.392 20.653-9.516.776-19.149.132-28.73.13-12.194-.004-24.388-.001-36.915-.001-.331-3.63-.904-7.15-.91-10.67-.007-4.24.536-8.478.718-12.721.28-6.556.235-6.465 6.384-6.42 9.14.066 18.283-.149 27.42.005 9.113.153 18.22.728 27.332.873 3.112.05 6.654.22 8.02-3.774.474-1.383 1.664-3.548 1.186-4.032-1.318-1.336-3.329-2.72-5.093-2.757-8.861-.183-17.744-.207-26.594.23-8.26.407-15.956-2.01-22.97-5.439-4.078-1.994-6.548-7.221-9.828-10.917-4.94-5.566-5.824-12.682-6.117-19.418-.39-8.957 3.553-17.034 9.198-23.899 7.887-9.59 18.907-11.721 30.592-11.606 16.258.16 32.515.435 48.772.657.985.014 1.97.002 3.743.002 0 6.354.003 12.459-.006 18.564 0 .325-.016.684-.149.97-1.26 2.7 3.763 6.814-1.475 8.344-3.01.879-6.438.397-9.678.41-10.22.04-20.442-.04-30.662.063-4.79.048-9.574.516-14.364.599-4.371.076-6.673 2.78-6.634 6.48.047 4.36 3.203 6.168 7.569 5.663 1.316-.152 2.662-.05 4.5-.068zM516.625 165.662c-10.42 6.553-21.695 8.904-33.315 8.338-9.536-.466-18.675-3.692-26.633-9.105-5.118-3.481-10.352-7.345-14.08-12.162-3.776-4.88-6.171-10.986-8.447-16.837-4.135-10.634-3.86-21.693-1.996-32.788 1.826-10.858 6.623-20.315 13.904-28.413 8.352-9.29 19.081-14.093 31.268-16.757 13.277-2.901 24.865 1.111 36.68 6.095 7.118 3.002 11.818 8.563 16.965 13.71 2.787 2.788 1.719 6.69-2.15 10.987-4.302 4.779-8.501 9.651-12.677 14.54a2529.624 2529.624 0 0 0-16.175 19.167c-5.887 7.034-11.733 14.102-17.837 21.445 15 3.208 24.002-5.055 31.041-16.106 1.581 1.997 2.527 3.428 3.703 4.635 4.646 4.766 9.222 9.616 14.114 14.12 2.54 2.339 1.936 4.276.242 6.4-4.005 5.026-8.433 9.596-14.607 12.731m-40.546-54.127 17.936-24.244c-12.98-2.387-22.257 2.163-26.67 7.884-7.704 9.99-7.753 21.204-4.442 33.371 4.53-5.88 8.608-11.176 13.176-17.011zM785.827 159.452c-5.248-7.542-11.067-14.35-15.19-22.066-2.311-4.323-1.429-10.243-2.67-15.274-2.13-8.629-.157-17.083 1.736-25.15 1.517-6.47 5.776-12.418 9.41-18.227 2.421-3.87 5.226-8.316 9.015-10.345 8.04-4.306 15.84-9.7 25.465-10.33 2.578-.168 5.125-.784 7.702-1.019 13.45-1.224 25.106 4.093 35.983 10.915 4.518 2.833 7.854 7.646 11.41 11.829.639.752.243 3.244-.55 4.223-8.153 10.06-16.5 19.963-24.766 29.933a6080.91 6080.91 0 0 0-20.218 24.542c-.283.344-.22.962-.486 1.331-.99 1.37-2.05 2.689-3.085 4.027 2.12.377 4.453 1.516 6.32.992 6.46-1.813 13.265-3.299 17.769-8.974 1.747-2.202 3.081-4.731 5.134-7.94 7.092 7.271 13.535 13.786 19.806 20.463.553.589.423 2.557-.142 3.347-7.069 9.883-17.17 16.727-28.06 20.282-9.596 3.132-20.77 4.207-30.968.297-6.592-2.528-13.828-4.041-19.083-9.467-1.214-1.254-2.916-2.036-4.532-3.389m24.286-44.844 20.074-26.88c-11.606-3.689-22.534 2.11-28.868 10.436-5.185 6.817-5.855 24.017-1.54 29.906 3.307-4.376 6.548-8.664 10.334-13.462z"/><path fill="#FD9E32" d="M35.992 23.498c5.216-.058 10.03.42 14.847.453 5.784.04 11.573-.468 17.358-.439 11.76.06 23.518.384 35.278.481 10.986.091 21.973.067 32.96.015 3.467-.017 5.09.71 4.74 4.97-.612 7.472-.131 15.028-.457 22.534-.051 1.186-1.887 3.236-2.968 3.284-7.241.317-14.501.208-21.755.222-6.04.012-12.08.003-18.621.003v117.01h-31.46V55.491H22.221V23.838c4.86 0 9.114 0 13.77-.34z"/><path fill="#4A90F9" d="M546.42 78.354c.14-6.112.14-11.833.14-17.339 6.883-1.55 9.919 1.996 12.817 6.638 1.607 2.576 4.568 3.404 7.557 1.083 7.513-5.834 16.453-8.864 25.53-10.01 5.893-.742 12.202 1.642 18.3 2.761 9.493 1.743 15.626 8.337 22.124 14.793 7.845 7.793 10.863 17.585 12.412 27.765 1.134 7.457.201 15.222.275 22.849.112 11.513.317 23.026.435 34.54.024 2.379.148 4.823-.333 7.12-.428 2.046-1.495 3.563-4.38 3.464-8.248-.281-16.512-.099-25.191-.099v-18.496c-.001-14.963.053-29.926-.021-44.888-.063-12.696-12.145-23.773-26.614-19.11-8.792 2.834-15.43 10.769-13.135 22.433.53 2.692-.365 5.633-.277 8.449.149 4.752.797 9.496.79 14.242-.006 4.638-.673 9.271-.856 13.914-.16 4.09.091 8.198-.108 12.285-.173 3.558-.722 7.098-1.16 11.15-8.516 0-16.926.098-25.327-.141-.899-.026-2.48-2.006-2.495-3.097-.134-9.945.03-19.894.066-29.842.042-11.845.14-23.69.03-35.534-.077-8.181-.468-16.36-.579-24.93z"/><path fill="#FA8134" d="M231.19 22.965c.397-.199.795-.397 1.58-.132.69.668.996.872 1.3 1.076 9.693 1.444 18.258 5.22 26.455 10.757 7.857 5.307 14.531 11.268 19.937 19.11 5.92 8.587 9.84 17.856 12.507 27.806 2.4 8.952 2.379 17.867 1.138 27.075-1.879 13.947-6.921 26.195-15.527 37.345-6.965 9.024-15.317 16.044-25.338 21.232-1.407.728-2.965 1.163-5.243 1.76-6.512 1.702-12.233 3.377-17.954 5.053 0 0-.025 0-.341-.069-2.291-.6-4.273-1.108-6.24-1.67-2.271-.649-4.664-1.065-6.768-2.074-6.838-3.282-5.917-10.294-7.221-16.13-.243-1.086.907-3.126 1.979-3.738 3.031-1.732 6.298-3.104 9.579-4.331 3.63-1.358 8.466.77 11.222-3.891.228-.074.698-.164.993-.227.819-.354 1.342-.646 2.08-.913.214.025.643-.024.982-.049 1.184-.663 2.03-1.302 3.087-1.956.21-.014.628-.073.951-.08 1.082-.64 1.84-1.271 2.599-1.94 0-.037.074-.037.25-.17.398-.326.59-.547.75-.826-.002-.032.063-.03.237-.134.401-.25.608-.422 1.046-.695.423-.118.593-.16 1.125-.213 2.162-1.982 3.962-3.954 5.867-6.248 8.613-10.306 12.935-21.687 11.381-34.916-1.34-11.396-6.65-20.834-14.839-29.003-.317-.38-.53-.567-.788-.727-.024 0-.023-.047-.156-.226-.326-.407-.548-.604-.832-.774-.035-.003-.03-.073-.065-.428-1.324-1.092-2.613-1.83-3.937-2.566-.035.001-.04-.069-.143-.394-3.849-3.778-8.05-6.073-13.481-5.473-.119.076-.277-.157-.431-.466-1.498-.308-2.842-.306-4.492-.353-.678-.23-1.05-.41-1.62-.906-1.582-.697-2.948-1.321-4.348-1.41-2.898-.181-5.814-.079-8.723-.093.08-3.064.56-6.185.142-9.18-.555-3.965-1.813-7.833-2.793-11.84 1.393-.36 4.32-.235 5.114-1.475 3.147-4.92 7.739-4.028 12.293-4.162 2.24-.067 4.458-.868 6.686-1.336z"/><path fill="#FB8F36" d="M230.921 22.574c-1.96.86-4.177 1.66-6.417 1.727-4.554.134-9.146-.759-12.293 4.162-.793 1.24-3.72 1.116-5.114 1.475.98 4.007 2.238 7.875 2.793 11.84.419 2.995-.062 6.116-.142 9.18 2.909.014 5.825-.088 8.723.094 1.4.088 2.766.712 4.047 1.539-4.07.734-8.097.69-11.997 1.374-11.161 1.956-20.751 7.064-27.516 16.251-6.554 8.9-10.086 18.34-9.687 30.322.393 11.802 5.056 20.466 11.693 28.88 1.812 2.297 5.6 2.984 7.58 5.21 4.522 5.087 10.749 7.25 16.662 8.129 7.401 1.1 15.166-.249 22.774-.54-2.528 4.588-7.364 2.46-10.994 3.818-3.281 1.227-6.548 2.6-9.58 4.331-1.07.612-2.22 2.652-1.978 3.737 1.304 5.837.383 12.849 7.221 16.13 2.104 1.01 4.497 1.426 6.769 2.075 1.966.562 3.948 1.07 6.238 1.683-2.852.599-6.012 1.507-9.188 1.567-15.775.298-30.61-3.65-43.964-11.868-5.445-3.35-9.67-8.682-14.447-13.117-2.466-2.29-5.242-4.343-7.285-6.964-1.731-2.22-2.348-5.277-3.913-7.665-4.908-7.486-6.366-15.919-8.217-24.49-1.573-7.285-.908-14.48-.799-21.52.109-6.968 3.035-14.08 5.65-20.768 2.572-6.581 5.683-13.147 9.733-18.89 3.042-4.313 7.857-7.419 12.039-10.872 7.447-6.15 15.675-10.99 24.946-13.86 6.681-2.069 13.487-3.584 20.542-3.54 5.285.035 10.568.118 16.121.57zM230.481 174.017a483.342 483.342 0 0 1 17.142-4.986c-4.678 3.788-10.525 4.949-17.142 4.986z"/><path fill="#D69074" d="M415.823 46.732a414.648 414.648 0 0 1-.237-17.448c.212 5.405.257 11.199.237 17.448z"/><path fill="#CB937D" d="M351.764 114.19c4.137-.513 8.47-.644 13.204-.589-4.069.449-8.538.71-13.204.59zM368.116 113.843a98.84 98.84 0 0 1 8.784-.23c-2.515.214-5.406.253-8.784.23z"/><path fill="#D69074" d="M398.742 24.155c-2.43.185-5.33.304-8.6.242 2.463-.224 5.296-.265 8.6-.242zM366.744 24.145c-2.43.184-5.33.303-8.6.24 2.464-.223 5.296-.264 8.6-.24zM380.78 24.153c-.838.176-2.115.286-3.689.23.885-.209 2.067-.252 3.689-.23zM412.606 24.173c-.798.17-2.01.27-3.508.212.841-.2 1.967-.241 3.508-.212zM386.815 24.151c-.544.172-1.518.28-2.762.227.598-.204 1.464-.248 2.762-.227zM354.893 24.142c-.238.163-.83.264-1.594.21.297-.195.77-.233 1.594-.21zM403.805 24.158c-.251.155-.898.246-1.77.2.309-.178.841-.22 1.77-.2zM371.82 24.15c-.258.158-.922.253-1.816.205.317-.184.863-.226 1.816-.205z"/><path fill="#FB8F36" d="M233.952 23.627c-.186.078-.491-.126-1.006-.51.155-.043.521.093 1.006.51z"/><path fill="#D69074" d="M357.232 23.793c-.144.384-.437.424-1.172.404.046-.29.535-.519 1.172-.404z"/><path fill="#CB937D" d="M377.756 114.192c.148-.386.445-.425 1.186-.395-.05.293-.544.518-1.186.395zM365.757 114.19c.147-.4.443-.448 1.185-.425-.048.306-.541.542-1.185.426zM348.757 114.19c.148-.403.444-.453 1.187-.427-.049.31-.543.545-1.187.427zM345.758 114.189c.148-.398.445-.442 1.188-.42-.049.303-.544.537-1.188.42zM380.133 113.86c.016-.204.215-.23.484-.054.06.08-.308.112-.484.054zM344.47 113.845c-.001-.111.294-.19.737-.17-.048.135-.244.168-.737.17z"/><path fill="#D69074" d="M369.228 23.795c-.146.385-.437.424-1.165.404.048-.29.533-.519 1.165-.404zM376.225 23.796c-.146.385-.435.424-1.16.404.048-.29.532-.52 1.16-.404zM374.226 23.795c-.145.384-.435.423-1.162.403.049-.288.533-.518 1.162-.403zM416.237 49.183c-.39-.148-.437-.422-.438-1.11.292.051.537.518.438 1.11zM416.2 28.206c-.384-.15-.418-.427-.4-1.122.284.053.517.523.4 1.122zM415.218 23.804c-.145.383-.424.42-1.123.4.05-.286.519-.516 1.123-.4zM408.22 23.798c-.147.383-.433.42-1.148.4.05-.286.53-.516 1.148-.4zM406.219 23.796c-.147.384-.434.421-1.15.403.05-.287.53-.519 1.15-.403zM401.222 23.797c-.147.385-.434.424-1.154.405.049-.289.53-.52 1.154-.405zM389.227 23.798c-.146.385-.436.425-1.162.405.048-.29.533-.52 1.162-.405zM383.225 23.797c-.145.385-.434.424-1.158.405.048-.29.531-.52 1.158-.405z"/><path fill="#141414" d="M475.835 111.805c-4.324 5.565-8.403 10.86-12.932 16.741-3.311-12.167-3.262-23.381 4.443-33.371 4.412-5.721 13.69-10.27 26.67-7.884-6.062 8.192-12 16.218-18.181 24.514z"/><path fill="#1A1A1A" d="M809.84 114.863c-3.513 4.543-6.754 8.83-10.06 13.207-4.316-5.89-3.646-23.089 1.54-29.906 6.333-8.327 17.261-14.125 28.867-10.437-6.729 9.01-13.401 17.946-20.347 27.136z"/><path fill="#181818" d="M232.255 142.144c-7.836.364-15.6 1.712-23.002.613-5.913-.879-12.14-3.042-16.663-8.128-1.98-2.227-5.767-2.914-7.579-5.21-6.637-8.415-11.3-17.079-11.693-28.881-.399-11.981 3.133-21.421 9.687-30.322 6.765-9.187 16.355-14.295 27.516-16.25 3.9-.684 7.926-.64 12.196-1.06.673.051 1.044.231 2.045.654 1.86.319 3.091.394 4.323.469 0 0 .158.233.54.477 4.696 1.989 9.009 3.733 13.322 5.478 0 0 .004.07.162.364 1.389 1.07 2.62 1.848 3.85 2.626 0 0-.006.07.09.308.284.535.553.695.904.718 0 0-.001.048.087.27.257.517.511.667.852.672 8.061 8 13.372 17.439 14.711 28.835 1.554 13.229-2.768 24.61-11.711 35.063-2.256 2.35-4.077 4.23-5.898 6.11-.17.043-.341.086-1.003.175-.801.214-.965.474-.98.827 0 0-.066-.001-.293.097-.522.281-.679.546-.697.893 0 0-.074 0-.395.056-1.081.68-1.841 1.304-2.601 1.928 0 0-.418.059-.842-.275-1.354.554-2.283 1.441-3.212 2.329 0 0-.43.049-.75-.248-.97.218-1.619.733-2.268 1.248 0 0-.47.09-.698.164z"/><path fill="#FB8F36" d="M242.843 59.66c-4.209-1.42-8.522-3.165-13.099-5.23 5.048-.844 9.25 1.451 13.099 5.23zM246.355 134.94c1.46-1.87 3.28-3.75 5.432-5.777a52.82 52.82 0 0 1-5.432 5.778zM246.923 62.62c-1.195-.424-2.425-1.202-3.778-2.274 1.165.443 2.454 1.181 3.778 2.273zM228.93 53.72c-1.077.234-2.308.159-3.861-.11 1.02-.196 2.364-.198 3.862.11zM236.31 140.955c.59-.863 1.52-1.75 2.662-2.29-.632.988-1.478 1.627-2.662 2.29zM240.348 138.918c.437-.616 1.197-1.24 2.277-1.883-.437.613-1.195 1.244-2.277 1.883zM233.248 141.917a3.848 3.848 0 0 1 1.759-1.21c-.417.564-.94.856-1.759 1.21zM244.184 135.849c-.158-.25.006-.51.555-.65.053.228-.154.4-.555.65zM247.82 63.821c-.218.156-.487-.004-.736-.536.188-.068.41.129.736.536zM243.197 136.81c-.158-.215-.001-.48.522-.729.067.181-.124.402-.522.728zM248.764 64.774c-.213.163-.467.013-.7-.505.17-.062.383.125.7.505z"/></svg>